<svg xmlns="http://www.w3.org/2000/svg" version="1.1" xmlns:xlink="http://www.w3.org/1999/xlink" xmlns:svgjs="http://svgjs.dev/svgjs" width="1519" height="841" preserveAspectRatio="none" viewBox="0 0 1519 841"><g mask="url(&quot;#SvgjsMask1545&quot;)" fill="none"><rect width="1519" height="841" x="0" y="0" fill="rgba(0, 0, 0, 1)"></rect><path d="M-123.97 144.66C67.16 146.71 188.78 325.96 611.13 354.91 1033.49 383.86 1107.72 943.83 1346.24 984.91" stroke="rgba(51,121,194,0.58)" stroke-width="2"></path><path d="M-166.66 675C2.17 668.07 210.86 387.95 445.78 389.06 680.7 390.17 624.28 808.12 752 872.67" stroke="rgba(51,121,194,0.58)" stroke-width="2"></path><path d="M-134.32 579.26C23.1 564.54 176.56 225.43 395.83 234.45 615.09 243.47 527.07 814.68 660.9 950.93" stroke="rgba(51,121,194,0.58)" stroke-width="2"></path><path d="M-142.22 771.59C40.19 764.57 187.18 468.46 522.22 468.83 857.26 469.2 983.68 921.29 1186.66 945.02" stroke="rgba(51,121,194,0.58)" stroke-width="2"></path><path d="M-127.29 356.07C-11.59 356.76 98.06 461.2 323.42 461.19 548.77 461.2 512.89 336.5 774.12 356.07 1035.35 375.64 1045.12 918.3 1224.83 995.45" stroke="rgba(51,121,194,0.58)" stroke-width="2"></path></g><defs><mask id="SvgjsMask1545"><rect width="1519" height="841" fill="#ffffff"></rect></mask></defs></svg>