<svg xmlns="http://www.w3.org/2000/svg" version="1.1" xmlns:xlink="http://www.w3.org/1999/xlink" xmlns:svgjs="http://svgjs.dev/svgjs" width="1440" height="560" preserveAspectRatio="none" viewBox="0 0 1440 560"><g mask="url(&quot;#SvgjsMask1094&quot;)" fill="none"><rect width="1440" height="560" x="0" y="0" fill="rgba(255, 255, 255, 1)"></rect><path d="M -577.0350196865027,384 C -505.04,322.4 -361.04,71.8 -217.0350196865026,76 C -73.04,80.2 -1.04,373.6 142.9649803134974,405 C 286.96,436.4 358.96,218.6 502.9649803134974,233 C 646.96,247.4 718.96,471.6 862.9649803134973,477 C 1006.96,482.4 1107.56,269.6 1222.9649803134973,260 C 1338.37,250.4 1396.59,395.2 1440,429" stroke="rgba(255, 0, 0, 1)" stroke-width="2"></path><path d="M -293.8574573526488,278 C -221.86,279.6 -77.86,326 66.14254264735119,286 C 210.14,246 282.14,76.6 426.1425426473512,78 C 570.14,79.4 642.14,267.8 786.1425426473512,293 C 930.14,318.2 1002.14,186.2 1146.142542647351,204 C 1290.14,221.8 1447.37,375.4 1506.142542647351,382 C 1564.91,388.6 1453.23,266 1440,237" stroke="rgba(255, 0, 0, 1)" stroke-width="2"></path><path d="M -656.4848777420923,264 C -584.48,306.4 -440.48,488.2 -296.48487774209235,476 C -152.48,463.8 -80.48,217.4 63.51512225790765,203 C 207.52,188.6 279.52,412 423.51512225790765,404 C 567.52,396 639.52,166.8 783.5151222579077,163 C 927.52,159.2 1012.22,389.2 1143.5151222579077,385 C 1274.81,380.8 1380.7,190.6 1440,142" stroke="rgba(255, 0, 0, 1)" stroke-width="2"></path></g><defs><mask id="SvgjsMask1094"><rect width="1440" height="560" fill="#ffffff"></rect></mask></defs></svg>