<svg id="visual" viewBox="0 0 1440 1120" width="1440" height="1120" xmlns="http://www.w3.org/2000/svg" xmlns:xlink="http://www.w3.org/1999/xlink" version="1.1"><rect x="0" y="0" width="1440" height="1120" fill="#1d0228"></rect><path d="M1053 1120L1060.5 1099.3C1068 1078.7 1083 1037.3 1105 995.8C1127 954.3 1156 912.7 1161.5 871.2C1167 829.7 1149 788.3 1130 746.8C1111 705.3 1091 663.7 1080.5 622.2C1070 580.7 1069 539.3 1082.2 497.8C1095.3 456.3 1122.7 414.7 1139.2 373.2C1155.7 331.7 1161.3 290.3 1147.5 248.8C1133.7 207.3 1100.3 165.7 1101.7 124.2C1103 82.7 1139 41.3 1157 20.7L1175 0L1440 0L1440 20.7C1440 41.3 1440 82.7 1440 124.2C1440 165.7 1440 207.3 1440 248.8C1440 290.3 1440 331.7 1440 373.2C1440 414.7 1440 456.3 1440 497.8C1440 539.3 1440 580.7 1440 622.2C1440 663.7 1440 705.3 1440 746.8C1440 788.3 1440 829.7 1440 871.2C1440 912.7 1440 954.3 1440 995.8C1440 1037.3 1440 1078.7 1440 1099.3L1440 1120Z" fill="#1a1672"></path><path d="M1224 1120L1218.2 1099.3C1212.3 1078.7 1200.7 1037.3 1195.3 995.8C1190 954.3 1191 912.7 1195.8 871.2C1200.7 829.7 1209.3 788.3 1199.8 746.8C1190.3 705.3 1162.7 663.7 1148 622.2C1133.3 580.7 1131.7 539.3 1148.7 497.8C1165.7 456.3 1201.3 414.7 1213.5 373.2C1225.7 331.7 1214.3 290.3 1209.2 248.8C1204 207.3 1205 165.7 1191.2 124.2C1177.3 82.7 1148.7 41.3 1134.3 20.7L1120 0L1440 0L1440 20.7C1440 41.3 1440 82.7 1440 124.2C1440 165.7 1440 207.3 1440 248.8C1440 290.3 1440 331.7 1440 373.2C1440 414.7 1440 456.3 1440 497.8C1440 539.3 1440 580.7 1440 622.2C1440 663.7 1440 705.3 1440 746.8C1440 788.3 1440 829.7 1440 871.2C1440 912.7 1440 954.3 1440 995.8C1440 1037.3 1440 1078.7 1440 1099.3L1440 1120Z" fill="#003589"></path><path d="M1232 1120L1229.2 1099.3C1226.3 1078.7 1220.7 1037.3 1211.2 995.8C1201.7 954.3 1188.3 912.7 1176.5 871.2C1164.7 829.7 1154.3 788.3 1151.7 746.8C1149 705.3 1154 663.7 1165.8 622.2C1177.7 580.7 1196.3 539.3 1196 497.8C1195.7 456.3 1176.3 414.7 1163.7 373.2C1151 331.7 1145 290.3 1151.5 248.8C1158 207.3 1177 165.7 1185.3 124.2C1193.7 82.7 1191.3 41.3 1190.2 20.7L1189 0L1440 0L1440 20.7C1440 41.3 1440 82.7 1440 124.2C1440 165.7 1440 207.3 1440 248.8C1440 290.3 1440 331.7 1440 373.2C1440 414.7 1440 456.3 1440 497.8C1440 539.3 1440 580.7 1440 622.2C1440 663.7 1440 705.3 1440 746.8C1440 788.3 1440 829.7 1440 871.2C1440 912.7 1440 954.3 1440 995.8C1440 1037.3 1440 1078.7 1440 1099.3L1440 1120Z" fill="#00509a"></path><path d="M1186 1120L1197.3 1099.3C1208.7 1078.7 1231.3 1037.3 1242.5 995.8C1253.7 954.3 1253.3 912.7 1251.5 871.2C1249.7 829.7 1246.3 788.3 1248.5 746.8C1250.7 705.3 1258.3 663.7 1256.2 622.2C1254 580.7 1242 539.3 1247.2 497.8C1252.3 456.3 1274.7 414.7 1284.8 373.2C1295 331.7 1293 290.3 1282 248.8C1271 207.3 1251 165.7 1232.5 124.2C1214 82.7 1197 41.3 1188.5 20.7L1180 0L1440 0L1440 20.7C1440 41.3 1440 82.7 1440 124.2C1440 165.7 1440 207.3 1440 248.8C1440 290.3 1440 331.7 1440 373.2C1440 414.7 1440 456.3 1440 497.8C1440 539.3 1440 580.7 1440 622.2C1440 663.7 1440 705.3 1440 746.8C1440 788.3 1440 829.7 1440 871.2C1440 912.7 1440 954.3 1440 995.8C1440 1037.3 1440 1078.7 1440 1099.3L1440 1120Z" fill="#0069a6"></path><path d="M1252 1120L1245 1099.3C1238 1078.7 1224 1037.3 1233.8 995.8C1243.7 954.3 1277.3 912.7 1288.8 871.2C1300.3 829.7 1289.7 788.3 1287 746.8C1284.3 705.3 1289.7 663.7 1280 622.2C1270.3 580.7 1245.7 539.3 1242.2 497.8C1238.7 456.3 1256.3 414.7 1271.5 373.2C1286.7 331.7 1299.3 290.3 1295.5 248.8C1291.7 207.3 1271.3 165.7 1268.3 124.2C1265.3 82.7 1279.7 41.3 1286.8 20.7L1294 0L1440 0L1440 20.7C1440 41.3 1440 82.7 1440 124.2C1440 165.7 1440 207.3 1440 248.8C1440 290.3 1440 331.7 1440 373.2C1440 414.7 1440 456.3 1440 497.8C1440 539.3 1440 580.7 1440 622.2C1440 663.7 1440 705.3 1440 746.8C1440 788.3 1440 829.7 1440 871.2C1440 912.7 1440 954.3 1440 995.8C1440 1037.3 1440 1078.7 1440 1099.3L1440 1120Z" fill="#0081ae"></path><path d="M1254 1120L1268.3 1099.3C1282.7 1078.7 1311.3 1037.3 1326.3 995.8C1341.3 954.3 1342.7 912.7 1343.5 871.2C1344.3 829.7 1344.7 788.3 1343.2 746.8C1341.7 705.3 1338.3 663.7 1332.3 622.2C1326.3 580.7 1317.7 539.3 1307.5 497.8C1297.3 456.3 1285.7 414.7 1291 373.2C1296.3 331.7 1318.7 290.3 1319.3 248.8C1320 207.3 1299 165.7 1287.8 124.2C1276.7 82.7 1275.3 41.3 1274.7 20.7L1274 0L1440 0L1440 20.7C1440 41.3 1440 82.7 1440 124.2C1440 165.7 1440 207.3 1440 248.8C1440 290.3 1440 331.7 1440 373.2C1440 414.7 1440 456.3 1440 497.8C1440 539.3 1440 580.7 1440 622.2C1440 663.7 1440 705.3 1440 746.8C1440 788.3 1440 829.7 1440 871.2C1440 912.7 1440 954.3 1440 995.8C1440 1037.3 1440 1078.7 1440 1099.3L1440 1120Z" fill="#0099b7"></path><path d="M1321 1120L1326.7 1099.3C1332.3 1078.7 1343.7 1037.3 1343 995.8C1342.3 954.3 1329.7 912.7 1333 871.2C1336.3 829.7 1355.7 788.3 1359.3 746.8C1363 705.3 1351 663.7 1339.3 622.2C1327.7 580.7 1316.3 539.3 1310.8 497.8C1305.3 456.3 1305.7 414.7 1315.5 373.2C1325.3 331.7 1344.7 290.3 1351.2 248.8C1357.7 207.3 1351.3 165.7 1349.2 124.2C1347 82.7 1349 41.3 1350 20.7L1351 0L1440 0L1440 20.7C1440 41.3 1440 82.7 1440 124.2C1440 165.7 1440 207.3 1440 248.8C1440 290.3 1440 331.7 1440 373.2C1440 414.7 1440 456.3 1440 497.8C1440 539.3 1440 580.7 1440 622.2C1440 663.7 1440 705.3 1440 746.8C1440 788.3 1440 829.7 1440 871.2C1440 912.7 1440 954.3 1440 995.8C1440 1037.3 1440 1078.7 1440 1099.3L1440 1120Z" fill="#00ada1"></path><path d="M1392 1120L1388.2 1099.3C1384.3 1078.7 1376.7 1037.3 1367.7 995.8C1358.7 954.3 1348.3 912.7 1350.7 871.2C1353 829.7 1368 788.3 1376 746.8C1384 705.3 1385 663.7 1384.3 622.2C1383.7 580.7 1381.3 539.3 1379.5 497.8C1377.7 456.3 1376.3 414.7 1378.8 373.2C1381.3 331.7 1387.7 290.3 1389.8 248.8C1392 207.3 1390 165.7 1391.3 124.2C1392.7 82.7 1397.3 41.3 1399.7 20.7L1402 0L1440 0L1440 20.7C1440 41.3 1440 82.7 1440 124.2C1440 165.7 1440 207.3 1440 248.8C1440 290.3 1440 331.7 1440 373.2C1440 414.7 1440 456.3 1440 497.8C1440 539.3 1440 580.7 1440 622.2C1440 663.7 1440 705.3 1440 746.8C1440 788.3 1440 829.7 1440 871.2C1440 912.7 1440 954.3 1440 995.8C1440 1037.3 1440 1078.7 1440 1099.3L1440 1120Z" fill="#00be70"></path><path d="M1411 1120L1409.2 1099.3C1407.3 1078.7 1403.7 1037.3 1405.8 995.8C1408 954.3 1416 912.7 1419.3 871.2C1422.7 829.7 1421.3 788.3 1417.7 746.8C1414 705.3 1408 663.7 1407.2 622.2C1406.3 580.7 1410.7 539.3 1406.7 497.8C1402.7 456.3 1390.3 414.7 1388.3 373.2C1386.3 331.7 1394.7 290.3 1398.3 248.8C1402 207.3 1401 165.7 1404.7 124.2C1408.3 82.7 1416.7 41.3 1420.8 20.7L1425 0L1440 0L1440 20.7C1440 41.3 1440 82.7 1440 124.2C1440 165.7 1440 207.3 1440 248.8C1440 290.3 1440 331.7 1440 373.2C1440 414.7 1440 456.3 1440 497.8C1440 539.3 1440 580.7 1440 622.2C1440 663.7 1440 705.3 1440 746.8C1440 788.3 1440 829.7 1440 871.2C1440 912.7 1440 954.3 1440 995.8C1440 1037.3 1440 1078.7 1440 1099.3L1440 1120Z" fill="#6fc724"></path></svg>