<svg id="visual" viewBox="0 0 1920 1080" width="1920" height="1080" xmlns="http://www.w3.org/2000/svg" xmlns:xlink="http://www.w3.org/1999/xlink" version="1.1"><rect x="0" y="0" width="1920" height="1080" fill="#e7e7e7"></rect><path d="M0 171L18.8 163.5C37.7 156 75.3 141 113 134.7C150.7 128.3 188.3 130.7 226 141.3C263.7 152 301.3 171 339 180.2C376.7 189.3 414.3 188.7 452 183.2C489.7 177.7 527.3 167.3 565 160.8C602.7 154.3 640.3 151.7 678 152.2C715.7 152.7 753.3 156.3 791 153.3C828.7 150.3 866.3 140.7 903.8 142.2C941.3 143.7 978.7 156.3 1016.2 159.7C1053.7 163 1091.3 157 1129 160.5C1166.7 164 1204.3 177 1242 180.5C1279.7 184 1317.3 178 1355 177.5C1392.7 177 1430.3 182 1468 183.8C1505.7 185.7 1543.3 184.3 1581 174.2C1618.7 164 1656.3 145 1694 136.5C1731.7 128 1769.3 130 1807 134C1844.7 138 1882.3 144 1901.2 147L1920 150L1920 0L1901.2 0C1882.3 0 1844.7 0 1807 0C1769.3 0 1731.7 0 1694 0C1656.3 0 1618.7 0 1581 0C1543.3 0 1505.7 0 1468 0C1430.3 0 1392.7 0 1355 0C1317.3 0 1279.7 0 1242 0C1204.3 0 1166.7 0 1129 0C1091.3 0 1053.7 0 1016.2 0C978.7 0 941.3 0 903.8 0C866.3 0 828.7 0 791 0C753.3 0 715.7 0 678 0C640.3 0 602.7 0 565 0C527.3 0 489.7 0 452 0C414.3 0 376.7 0 339 0C301.3 0 263.7 0 226 0C188.3 0 150.7 0 113 0C75.3 0 37.7 0 18.8 0L0 0Z" fill="#2d0543"></path><path d="M0 119L18.8 120.3C37.7 121.7 75.3 124.3 113 125.7C150.7 127 188.3 127 226 125.7C263.7 124.3 301.3 121.7 339 121C376.7 120.3 414.3 121.7 452 123.7C489.7 125.7 527.3 128.3 565 124.2C602.7 120 640.3 109 678 103.3C715.7 97.7 753.3 97.3 791 99.7C828.7 102 866.3 107 903.8 110.3C941.3 113.7 978.7 115.3 1016.2 115C1053.7 114.7 1091.3 112.3 1129 118.8C1166.7 125.3 1204.3 140.7 1242 145.2C1279.7 149.7 1317.3 143.3 1355 139C1392.7 134.7 1430.3 132.3 1468 130.3C1505.7 128.3 1543.3 126.7 1581 124.7C1618.7 122.7 1656.3 120.3 1694 118.3C1731.7 116.3 1769.3 114.7 1807 115.3C1844.7 116 1882.3 119 1901.2 120.5L1920 122L1920 0L1901.2 0C1882.3 0 1844.7 0 1807 0C1769.3 0 1731.7 0 1694 0C1656.3 0 1618.7 0 1581 0C1543.3 0 1505.7 0 1468 0C1430.3 0 1392.7 0 1355 0C1317.3 0 1279.7 0 1242 0C1204.3 0 1166.7 0 1129 0C1091.3 0 1053.7 0 1016.2 0C978.7 0 941.3 0 903.8 0C866.3 0 828.7 0 791 0C753.3 0 715.7 0 678 0C640.3 0 602.7 0 565 0C527.3 0 489.7 0 452 0C414.3 0 376.7 0 339 0C301.3 0 263.7 0 226 0C188.3 0 150.7 0 113 0C75.3 0 37.7 0 18.8 0L0 0Z" fill="#410858"></path><path d="M0 108L18.8 107C37.7 106 75.3 104 113 99.3C150.7 94.7 188.3 87.3 226 84.7C263.7 82 301.3 84 339 84C376.7 84 414.3 82 452 83.8C489.7 85.7 527.3 91.3 565 98.7C602.7 106 640.3 115 678 114.7C715.7 114.3 753.3 104.7 791 97.7C828.7 90.7 866.3 86.3 903.8 82.3C941.3 78.3 978.7 74.7 1016.2 78.5C1053.7 82.3 1091.3 93.7 1129 102C1166.7 110.3 1204.3 115.7 1242 114.8C1279.7 114 1317.3 107 1355 98.2C1392.7 89.3 1430.3 78.7 1468 77C1505.7 75.3 1543.3 82.7 1581 82.8C1618.7 83 1656.3 76 1694 80.2C1731.7 84.3 1769.3 99.7 1807 107.3C1844.7 115 1882.3 115 1901.2 115L1920 115L1920 0L1901.2 0C1882.3 0 1844.7 0 1807 0C1769.3 0 1731.7 0 1694 0C1656.3 0 1618.7 0 1581 0C1543.3 0 1505.7 0 1468 0C1430.3 0 1392.7 0 1355 0C1317.3 0 1279.7 0 1242 0C1204.3 0 1166.7 0 1129 0C1091.3 0 1053.7 0 1016.2 0C978.7 0 941.3 0 903.8 0C866.3 0 828.7 0 791 0C753.3 0 715.7 0 678 0C640.3 0 602.7 0 565 0C527.3 0 489.7 0 452 0C414.3 0 376.7 0 339 0C301.3 0 263.7 0 226 0C188.3 0 150.7 0 113 0C75.3 0 37.7 0 18.8 0L0 0Z" fill="#560b6e"></path><path d="M0 82L18.8 77.5C37.7 73 75.3 64 113 63.8C150.7 63.7 188.3 72.3 226 70.7C263.7 69 301.3 57 339 51.3C376.7 45.7 414.3 46.3 452 53C489.7 59.7 527.3 72.3 565 77.8C602.7 83.3 640.3 81.7 678 76C715.7 70.3 753.3 60.7 791 58C828.7 55.3 866.3 59.7 903.8 61.2C941.3 62.7 978.7 61.3 1016.2 61.5C1053.7 61.7 1091.3 63.3 1129 67C1166.7 70.7 1204.3 76.3 1242 77.7C1279.7 79 1317.3 76 1355 73.7C1392.7 71.3 1430.3 69.7 1468 66.3C1505.7 63 1543.3 58 1581 56.7C1618.7 55.3 1656.3 57.7 1694 60.3C1731.7 63 1769.3 66 1807 66.7C1844.7 67.3 1882.3 65.7 1901.2 64.8L1920 64L1920 0L1901.2 0C1882.3 0 1844.7 0 1807 0C1769.3 0 1731.7 0 1694 0C1656.3 0 1618.7 0 1581 0C1543.3 0 1505.7 0 1468 0C1430.3 0 1392.7 0 1355 0C1317.3 0 1279.7 0 1242 0C1204.3 0 1166.7 0 1129 0C1091.3 0 1053.7 0 1016.2 0C978.7 0 941.3 0 903.8 0C866.3 0 828.7 0 791 0C753.3 0 715.7 0 678 0C640.3 0 602.7 0 565 0C527.3 0 489.7 0 452 0C414.3 0 376.7 0 339 0C301.3 0 263.7 0 226 0C188.3 0 150.7 0 113 0C75.3 0 37.7 0 18.8 0L0 0Z" fill="#6d0d84"></path><path d="M0 20L18.8 20.2C37.7 20.3 75.3 20.7 113 22.2C150.7 23.7 188.3 26.3 226 27.3C263.7 28.3 301.3 27.7 339 29.8C376.7 32 414.3 37 452 38.2C489.7 39.3 527.3 36.7 565 35.7C602.7 34.7 640.3 35.3 678 34.5C715.7 33.7 753.3 31.3 791 31.8C828.7 32.3 866.3 35.7 903.8 40.2C941.3 44.7 978.7 50.3 1016.2 46.2C1053.7 42 1091.3 28 1129 23.2C1166.7 18.3 1204.3 22.7 1242 28C1279.7 33.3 1317.3 39.7 1355 40.7C1392.7 41.7 1430.3 37.3 1468 39C1505.7 40.7 1543.3 48.3 1581 51.7C1618.7 55 1656.3 54 1694 48.7C1731.7 43.3 1769.3 33.7 1807 28.3C1844.7 23 1882.3 22 1901.2 21.5L1920 21L1920 0L1901.2 0C1882.3 0 1844.7 0 1807 0C1769.3 0 1731.7 0 1694 0C1656.3 0 1618.7 0 1581 0C1543.3 0 1505.7 0 1468 0C1430.3 0 1392.7 0 1355 0C1317.3 0 1279.7 0 1242 0C1204.3 0 1166.7 0 1129 0C1091.3 0 1053.7 0 1016.2 0C978.7 0 941.3 0 903.8 0C866.3 0 828.7 0 791 0C753.3 0 715.7 0 678 0C640.3 0 602.7 0 565 0C527.3 0 489.7 0 452 0C414.3 0 376.7 0 339 0C301.3 0 263.7 0 226 0C188.3 0 150.7 0 113 0C75.3 0 37.7 0 18.8 0L0 0Z" fill="#860c99"></path></svg>