<svg id="visual" viewBox="0 0 1920 1120" width="1920" height="1120" xmlns="http://www.w3.org/2000/svg" xmlns:xlink="http://www.w3.org/1999/xlink" version="1.1"><rect x="0" y="0" width="1920" height="1120" fill="#000000"></rect><path d="M0 193L213 149L427 157L640 163L853 153L1067 171L1280 157L1493 190L1707 151L1920 159L1920 0L1707 0L1493 0L1280 0L1067 0L853 0L640 0L427 0L213 0L0 0Z" fill="#06032d"></path><path d="M0 167L213 145L427 170L640 177L853 148L1067 184L1280 184L1493 164L1707 148L1920 159L1920 0L1707 0L1493 0L1280 0L1067 0L853 0L640 0L427 0L213 0L0 0Z" fill="#061b43"></path><path d="M0 162L213 154L427 126L640 160L853 148L1067 160L1280 126L1493 158L1707 147L1920 169L1920 0L1707 0L1493 0L1280 0L1067 0L853 0L640 0L427 0L213 0L0 0Z" fill="#082e59"></path><path d="M0 108L213 111L427 124L640 122L853 141L1067 106L1280 118L1493 148L1707 118L1920 128L1920 0L1707 0L1493 0L1280 0L1067 0L853 0L640 0L427 0L213 0L0 0Z" fill="#094270"></path><path d="M0 102L213 114L427 133L640 99L853 115L1067 104L1280 97L1493 121L1707 116L1920 127L1920 0L1707 0L1493 0L1280 0L1067 0L853 0L640 0L427 0L213 0L0 0Z" fill="#075787"></path><path d="M0 115L213 88L427 93L640 103L853 93L1067 79L1280 109L1493 90L1707 109L1920 105L1920 0L1707 0L1493 0L1280 0L1067 0L853 0L640 0L427 0L213 0L0 0Z" fill="#056d9d"></path><path d="M0 85L213 88L427 93L640 64L853 65L1067 83L1280 91L1493 87L1707 90L1920 97L1920 0L1707 0L1493 0L1280 0L1067 0L853 0L640 0L427 0L213 0L0 0Z" fill="#0684b3"></path><path d="M0 59L213 79L427 65L640 77L853 54L1067 80L1280 53L1493 71L1707 56L1920 74L1920 0L1707 0L1493 0L1280 0L1067 0L853 0L640 0L427 0L213 0L0 0Z" fill="#0f9bc7"></path><path d="M0 58L213 50L427 38L640 50L853 59L1067 39L1280 37L1493 63L1707 59L1920 44L1920 0L1707 0L1493 0L1280 0L1067 0L853 0L640 0L427 0L213 0L0 0Z" fill="#1eb3db"></path><path d="M0 40L213 32L427 30L640 25L853 33L1067 22L1280 22L1493 40L1707 27L1920 21L1920 0L1707 0L1493 0L1280 0L1067 0L853 0L640 0L427 0L213 0L0 0Z" fill="#31ccee"></path><path d="M0 8L213 18L427 22L640 14L853 11L1067 16L1280 14L1493 14L1707 10L1920 25L1920 0L1707 0L1493 0L1280 0L1067 0L853 0L640 0L427 0L213 0L0 0Z" fill="#46e5ff"></path></svg>